<?xml version="1.0" encoding="UTF-8"?>
<svg width="16px" height="16px" viewBox="0 0 16 16" version="1.1" xmlns="http://www.w3.org/2000/svg" xmlns:xlink="http://www.w3.org/1999/xlink">
    <!-- Generator: Sketch 60.1 (88133) - https://sketch.com -->
    <title>brands-and-logotypes</title>
    <desc>Created with Sketch.</desc>
    <g id="Page-1" stroke="none" stroke-width="1" fill="none" fill-rule="evenodd">
        <g id="ml2.0-OnboardingScreen#6.2" transform="translate(-101.000000, -541.000000)" fill-rule="nonzero">
            <g id="Group-3" transform="translate(20.000000, 526.000000)">
                <g id="Group-2" transform="translate(81.000000, 14.000000)">
                    <g id="brands-and-logotypes" transform="translate(0.000000, 1.000000)">
                        <path d="M3.75,8 C3.75,7.20728125 3.96840625,6.4646875 4.34784375,5.82884375 L4.34784375,3.13171875 L1.65071875,3.13171875 C0.58025,4.52196875 -1.42108547e-14,6.2163125 -1.42108547e-14,8 C-1.42108547e-14,9.7836875 0.58025,11.4780313 1.65071875,12.8682813 L4.34784375,12.8682813 L4.34784375,10.1711563 C3.96840625,9.5353125 3.75,8.79271875 3.75,8 L3.75,8 Z" id="Path" fill="#FBBD00"></path>
                        <path d="M8,12.25 L6.125,14.125 L8,16 C9.78371875,16 11.4780313,15.41975 12.8682812,14.3492812 L12.8682812,11.6550313 L10.1740312,11.6550313 C9.532625,12.0358437 8.78690625,12.25 8,12.25 L8,12.25 Z" id="Path" fill="#0F9D58"></path>
                        <path d="M4.34784375,10.1711562 L1.65071875,12.8682812 C1.86265625,13.1435312 2.0934375,13.407125 2.34315625,13.656875 C3.85415625,15.1678437 5.863125,16 8,16 L8,12.25 C6.44925,12.25 5.09009375,11.415 4.34784375,10.1711562 Z" id="Path" fill="#31AA52"></path>
                        <path d="M16,8 C16,7.51328125 15.9559375,7.02565625 15.869,6.55071875 L15.7986563,6.166375 L8,6.166375 L8,9.916375 L11.795375,9.916375 C11.4268125,10.6495313 10.860125,11.2476875 10.174,11.6550625 L12.86825,14.3493125 C13.1435,14.137375 13.4070937,13.9065938 13.6568438,13.656875 C15.1678437,12.1458438 16,10.136875 16,8 L16,8 Z" id="Path" fill="#3C79E6"></path>
                        <path d="M11.0052187,4.99478125 L11.3366562,5.32621875 L13.9883125,2.67459375 L13.656875,2.34315625 C12.145875,0.83215625 10.1369062,0 8,0 L6.125,1.875 L8,3.75 C9.1351875,3.75 10.2024687,4.1920625 11.0052187,4.99478125 Z" id="Path" fill="#CF2D48"></path>
                        <path d="M8,3.75 L8,0 C5.863125,0 3.85415625,0.83215625 2.343125,2.343125 C2.09340625,2.59284375 1.862625,2.8564375 1.6506875,3.13171875 L4.3478125,5.82884375 C5.09009375,4.585 6.44925,3.75 8,3.75 Z" id="Path" fill="#EB4132"></path>
                    </g>
                </g>
            </g>
        </g>
    </g>
</svg>